<svg aria-hidden="true" style="position: absolute; width: 0; height: 0; overflow: hidden;" version="1.1"
     xmlns="http://www.w3.org/2000/svg">
    <defs>
        <symbol id="Accounting" viewBox="0 0 32 32">
            <path d="M12 16c1.582 0 3.129-0.469 4.445-1.348s2.341-2.128 2.946-3.59c0.605-1.462 0.764-3.070 0.455-4.622s-1.071-2.977-2.189-4.096-2.544-1.881-4.096-2.189c-1.552-0.309-3.16-0.15-4.622 0.455s-2.711 1.631-3.59 2.946c-0.879 1.316-1.348 2.862-1.348 4.445 0.002 2.121 0.846 4.155 2.345 5.655s3.533 2.343 5.655 2.345zM12 2.667c1.055 0 2.086 0.313 2.963 0.899s1.561 1.419 1.964 2.394c0.404 0.975 0.509 2.047 0.303 3.081s-0.714 1.985-1.46 2.731c-0.746 0.746-1.696 1.254-2.731 1.46s-2.107 0.1-3.081-0.303c-0.975-0.404-1.808-1.087-2.394-1.964s-0.899-1.908-0.899-2.963c0-1.414 0.562-2.771 1.562-3.771s2.357-1.562 3.771-1.562z"></path>
            <path d="M28 13.333v-4h-2.667v4h-4v2.667h4v4h2.667v-4h4v-2.667h-4z"></path>
            <path d="M17.391 18.667h-10.781c-1.752 0.002-3.432 0.699-4.671 1.938s-1.936 2.919-1.938 4.671v6.724h2.667v-6.724c0.001-1.045 0.417-2.048 1.156-2.787s1.741-1.155 2.787-1.156h10.781c1.045 0.001 2.048 0.417 2.787 1.156s1.155 1.741 1.156 2.787v6.724h2.667v-6.724c-0.002-1.752-0.699-3.432-1.938-4.671s-2.919-1.936-4.671-1.938z"></path>
        </symbol>
        <symbol id="Administration" viewBox="0 0 32 32">
            <path fill="#7f858d" style="fill: var(--color1, #7f858d)" d="M20.001 32h-8v-4.684c-1.39-0.492-2.678-1.236-3.799-2.195l-4.059 2.345-4-6.933 4.057-2.34c-0.267-1.45-0.267-2.937 0-4.387l-4.057-2.34 4-6.933 4.059 2.345c1.121-0.959 2.408-1.703 3.799-2.195v-4.684h8v4.684c1.39 0.492 2.678 1.236 3.799 2.195l4.059-2.345 4 6.933-4.057 2.34c0.266 1.45 0.266 2.937 0 4.387l4.057 2.34-4 6.933-4.059-2.344c-1.121 0.958-2.408 1.702-3.799 2.193v4.684zM14.667 29.333h2.667v-4.036l1.001-0.259c1.643-0.425 3.138-1.292 4.324-2.505l0.724-0.737 3.497 2.020 1.333-2.309-3.493-2.017 0.275-0.995c0.452-1.636 0.452-3.364 0-5l-0.275-0.995 3.493-2.017-1.333-2.309-3.497 2.025-0.724-0.732c-1.187-1.212-2.682-2.076-4.324-2.5l-1.001-0.264v-4.036h-2.667v4.036l-1.001 0.259c-1.643 0.426-3.138 1.292-4.324 2.505l-0.724 0.737-3.497-2.025-1.333 2.309 3.493 2.017-0.275 0.995c-0.452 1.636-0.452 3.364 0 5l0.275 0.995-3.493 2.017 1.333 2.309 3.497-2.020 0.724 0.737c1.187 1.212 2.682 2.076 4.324 2.5l1.001 0.259v4.036zM16.001 21.333c-1.055 0-2.086-0.313-2.963-0.899s-1.561-1.419-1.964-2.394-0.509-2.047-0.303-3.081c0.206-1.035 0.714-1.985 1.46-2.731s1.696-1.254 2.731-1.46c1.035-0.206 2.107-0.1 3.081 0.303s1.807 1.087 2.393 1.964c0.586 0.877 0.899 1.908 0.899 2.963 0 1.414-0.562 2.771-1.562 3.771s-2.357 1.562-3.771 1.562zM16.001 13.333c-0.527 0-1.043 0.156-1.482 0.449s-0.78 0.71-0.982 1.197c-0.202 0.487-0.255 1.023-0.152 1.541s0.357 0.992 0.73 1.365c0.373 0.373 0.848 0.627 1.365 0.73s1.053 0.050 1.541-0.152c0.487-0.202 0.904-0.544 1.197-0.982s0.449-0.954 0.449-1.482c0-0.707-0.281-1.386-0.781-1.886s-1.178-0.781-1.886-0.781z"></path>
        </symbol>
        <symbol id="Authwahlisten" viewBox="0 0 32 32">
            <path fill="#7f858d" style="fill: var(--color1, #7f858d)" d="M32 5.334h-22.667v2.667h22.667v-2.667z"></path>
            <path fill="#7f858d" style="fill: var(--color1, #7f858d)" d="M32 14.666h-22.667v2.667h22.667v-2.667z"></path>
            <path fill="#7f858d" style="fill: var(--color1, #7f858d)" d="M32 24h-22.667v2.667h22.667v-2.667z"></path>
            <path fill="#7f858d" style="fill: var(--color1, #7f858d)" d="M2.667 9.333c1.473 0 2.667-1.194 2.667-2.667s-1.194-2.667-2.667-2.667c-1.473 0-2.667 1.194-2.667 2.667s1.194 2.667 2.667 2.667z"></path>
            <path fill="#7f858d" style="fill: var(--color1, #7f858d)" d="M2.667 18.667c1.473 0 2.667-1.194 2.667-2.667s-1.194-2.667-2.667-2.667c-1.473 0-2.667 1.194-2.667 2.667s1.194 2.667 2.667 2.667z"></path>
            <path fill="#7f858d" style="fill: var(--color1, #7f858d)" d="M2.667 28c1.473 0 2.667-1.194 2.667-2.667s-1.194-2.667-2.667-2.667-2.667 1.194-2.667 2.667c0 1.473 1.194 2.667 2.667 2.667z"></path>
        </symbol>
        <symbol id="Banking" viewBox="0 0 32 32">
            <path fill="#7f858d" style="fill: var(--color1, #7f858d)" d="M0 29.333h32v2.667h-32v-2.667zM32 10.545v2.788h-4v13.333h-24v-13.333h-4v-2.788c-0-0.719 0.193-1.424 0.56-2.042s0.893-1.126 1.524-1.47l12-6.545c0.587-0.322 1.246-0.49 1.916-0.49s1.329 0.169 1.916 0.49l12 6.545c0.631 0.344 1.157 0.852 1.524 1.47s0.56 1.323 0.56 2.042zM6.667 24h4v-10.667h-4v10.667zM13.333 13.333v10.667h5.333v-10.667h-5.333zM25.333 13.333h-4v10.667h4v-10.667zM29.333 10.545c0-0.24-0.065-0.475-0.187-0.681s-0.298-0.375-0.508-0.49l-12-6.545c-0.196-0.107-0.416-0.163-0.639-0.163s-0.443 0.056-0.639 0.163l-12 6.545c-0.21 0.115-0.386 0.284-0.508 0.49s-0.187 0.441-0.187 0.681v0.121h26.667v-0.121z"></path>
        </symbol>
        <symbol id="Dashboard" viewBox="0 0 32 32">
            <path d="M14.667 14.667h-14.667v-10.667c0-1.061 0.421-2.078 1.172-2.828s1.768-1.172 2.828-1.172h10.667v14.667zM2.667 12h9.333v-9.333h-8c-0.354 0-0.693 0.14-0.943 0.391s-0.391 0.589-0.391 0.943v8z"></path>
            <path d="M32 14.667h-14.667v-14.667h10.667c1.061 0 2.078 0.421 2.828 1.172s1.172 1.768 1.172 2.828v10.667zM20 12h9.333v-8c0-0.354-0.141-0.693-0.391-0.943s-0.589-0.391-0.943-0.391h-8v9.333z"></path>
            <path d="M14.667 32h-10.667c-1.061 0-2.078-0.421-2.828-1.172s-1.172-1.768-1.172-2.828v-10.667h14.667v14.667zM2.667 20v8c0 0.354 0.14 0.693 0.391 0.943s0.589 0.39 0.943 0.39h8v-9.333h-9.333z"></path>
            <path d="M28 32h-10.667v-14.667h14.667v10.667c0 1.061-0.421 2.078-1.172 2.828s-1.768 1.172-2.828 1.172zM20 29.333h8c0.354 0 0.693-0.14 0.943-0.39s0.391-0.589 0.391-0.943v-8h-9.333v9.333z"></path>
        </symbol>
        <symbol id="Einkauf" viewBox="0 0 32 32">
            <path fill="#7f858d" style="fill: var(--color1, #7f858d)" d="M26.885 17.333h-19.66l-1.255-10.667h10.029v-2.667h-10.344l-0.056-0.469c-0.115-0.973-0.583-1.869-1.314-2.52s-1.677-1.010-2.656-1.011h-1.629v2.667h1.629c0.327 0 0.642 0.12 0.886 0.337s0.4 0.516 0.438 0.84l2.113 17.957c0.115 0.973 0.582 1.87 1.314 2.521s1.677 1.011 2.657 1.011h17.629v-2.667h-17.629c-0.327 0-0.642-0.12-0.886-0.337s-0.4-0.517-0.438-0.841l-0.175-1.488h21.576l1.2-6.667h-2.708l-0.721 4z"></path>
            <path fill="#7f858d" style="fill: var(--color1, #7f858d)" d="M9.334 32.001c1.473 0 2.667-1.194 2.667-2.667s-1.194-2.667-2.667-2.667c-1.473 0-2.667 1.194-2.667 2.667s1.194 2.667 2.667 2.667z"></path>
            <path fill="#7f858d" style="fill: var(--color1, #7f858d)" d="M22.667 32.001c1.473 0 2.667-1.194 2.667-2.667s-1.194-2.667-2.667-2.667c-1.473 0-2.667 1.194-2.667 2.667s1.194 2.667 2.667 2.667z"></path>
            <path fill="#7f858d" style="fill: var(--color1, #7f858d)" d="M22.77 11.39h0.044c0.331 0.001 0.658-0.064 0.964-0.19s0.583-0.313 0.816-0.547l7.015-7.015-1.885-1.885-6.908 6.915-2.992-3.12-1.921 1.848 3.075 3.2c0.23 0.247 0.507 0.444 0.815 0.581s0.641 0.209 0.978 0.214z"></path>
        </symbol>
        <symbol id="Help" viewBox="0 0 32 32">
            <path fill="#7f858d" style="fill: var(--color1, #7f858d)" d="M30.563 2.267c-0.449-0.376-0.976-0.649-1.542-0.798s-1.159-0.172-1.735-0.066l-8.24 1.497c-1.179 0.213-2.252 0.817-3.045 1.715-0.793-0.899-1.866-1.505-3.045-1.719l-8.24-1.497c-0.576-0.105-1.169-0.081-1.735 0.068s-1.093 0.421-1.543 0.797c-0.45 0.375-0.811 0.845-1.060 1.375s-0.377 1.109-0.377 1.695v22.445l16 2.911 16-2.911v-22.445c0-0.585-0.129-1.163-0.377-1.693s-0.61-0.999-1.060-1.373zM14.667 27.733l-12-2.179v-20.221c0-0.195 0.043-0.388 0.126-0.565s0.204-0.333 0.353-0.458c0.15-0.125 0.325-0.216 0.514-0.265s0.386-0.057 0.578-0.022l8.239 1.497c0.614 0.112 1.17 0.436 1.57 0.915s0.619 1.084 0.619 1.709v19.589zM29.333 25.552l-12 2.181v-19.589c-0-0.625 0.219-1.229 0.619-1.709s0.956-0.803 1.57-0.915l8.239-1.497c0.192-0.035 0.389-0.027 0.578 0.022s0.364 0.14 0.514 0.265c0.15 0.125 0.271 0.281 0.353 0.458s0.126 0.37 0.126 0.565v20.219z"></path>
        </symbol>
        <symbol id="Lager" viewBox="0 0 32 32">
            <path d="M28 0h-24c-1.061 0-2.078 0.421-2.828 1.172s-1.172 1.768-1.172 2.828v28h32v-28c0-1.061-0.421-2.078-1.172-2.828s-1.768-1.172-2.828-1.172v0zM29.333 4v2.667h-9.333v-4h8c0.354 0 0.693 0.14 0.943 0.391s0.391 0.589 0.391 0.943zM14.667 2.667h2.667v8h-2.667v-8zM4 2.667h8v4h-9.333v-2.667c0-0.354 0.14-0.693 0.391-0.943s0.589-0.391 0.943-0.391zM2.667 29.333v-20h9.333v4h8v-4h9.333v20h-26.667zM20 24h6.667v2.667h-6.667v-2.667z"></path>
        </symbol>
        <symbol id="Post office" viewBox="0 0 32 32">
            <path fill="#fff" style="fill: var(--color2, #fff)" d="M4.367 4h23.266c1.251 0.023 2.286 0.446 3.105 1.27s1.239 1.845 1.262 3.064v17.333c-0.023 1.219-0.443 2.24-1.262 3.064s-1.854 1.247-3.105 1.27h-23.266c-1.251-0.023-2.286-0.446-3.104-1.27s-1.24-1.845-1.262-3.064v-17.333c0.023-1.219 0.444-2.24 1.262-3.064s1.854-1.247 3.104-1.27zM28.93 7.69c-0.114-0.248-0.284-0.44-0.512-0.576s-0.489-0.214-0.785-0.237h-23.266c-0.296 0.023-0.557 0.102-0.785 0.237s-0.398 0.327-0.512 0.576l12.93 9.005 12.93-9.005zM29.1 11.11l-12.281 8.531c-0.25 0.158-0.523 0.237-0.819 0.237s-0.569-0.079-0.819-0.237l-12.281-8.531v14.557c0 0.406 0.142 0.745 0.426 1.016s0.631 0.418 1.041 0.44h23.266c0.409-0.023 0.756-0.169 1.041-0.44s0.426-0.609 0.426-1.016v-14.557z"></path>
            <path fill="#fff" style="fill: var(--color2, #fff)" d="M29.156 7.752l-0.063-0.137c-0.128-0.28-0.323-0.5-0.583-0.655-0.254-0.151-0.543-0.237-0.863-0.262l-0.014-0.001-23.28 0.001c-0.32 0.024-0.609 0.111-0.863 0.262-0.26 0.155-0.455 0.375-0.583 0.655l-0.063 0.137 13.156 9.163 13.156-9.163zM29.28 10.765l-12.561 8.725c-0.221 0.138-0.459 0.207-0.719 0.207s-0.499-0.069-0.719-0.207l-12.561-8.725v14.901c0 0.454 0.161 0.84 0.482 1.146 0.317 0.302 0.705 0.465 1.155 0.49l0.010 0 23.276-0c0.45-0.025 0.838-0.188 1.155-0.49 0.321-0.306 0.482-0.692 0.482-1.146v-14.901zM15.181 19.641c0.25 0.158 0.523 0.237 0.819 0.237s0.569-0.079 0.819-0.237l12.281-8.531v14.557c0 0.406-0.142 0.745-0.426 1.016s-0.631 0.418-1.041 0.44h-23.266c-0.409-0.023-0.756-0.169-1.041-0.44s-0.426-0.609-0.426-1.016v-14.557l12.281 8.531zM27.632 4.18c1.207 0.022 2.196 0.429 2.978 1.216 0.784 0.789 1.188 1.764 1.21 2.939v17.33c-0.022 1.174-0.426 2.15-1.21 2.939-0.783 0.787-1.771 1.194-2.978 1.216h-23.263c-1.207-0.022-2.196-0.429-2.978-1.216-0.784-0.789-1.188-1.764-1.21-2.939v-17.33c0.022-1.174 0.426-2.15 1.21-2.939 0.783-0.787 1.771-1.194 2.978-1.216h23.263zM0 8.334v17.333c0.023 1.219 0.444 2.24 1.262 3.064s1.854 1.247 3.104 1.27h23.266c1.251-0.023 2.286-0.446 3.105-1.27s1.239-1.845 1.262-3.064v-17.333c-0.023-1.219-0.443-2.24-1.262-3.064s-1.854-1.247-3.105-1.27h-23.266c-1.251 0.023-2.286 0.446-3.104 1.27s-1.24 1.845-1.262 3.064zM28.418 7.115c0.227 0.135 0.398 0.327 0.512 0.576l-12.93 9.005-12.93-9.005c0.114-0.248 0.284-0.44 0.512-0.576s0.489-0.214 0.785-0.237h23.266c0.296 0.023 0.557 0.102 0.785 0.237z"></path>
        </symbol>
        <symbol id="Rechn" viewBox="0 0 32 32">
            <path fill="#7f858d" style="fill: var(--color1, #7f858d)" d="M28 1.333h-24c-1.061 0-2.078 0.421-2.828 1.172s-1.172 1.768-1.172 2.828v25.333h32v-25.333c0-1.061-0.421-2.078-1.172-2.828s-1.768-1.172-2.828-1.172zM4 4h24c0.354 0 0.693 0.14 0.943 0.391s0.391 0.589 0.391 0.943v4h-26.667v-4c0-0.354 0.14-0.693 0.391-0.943s0.589-0.391 0.943-0.391zM2.667 28v-16h26.667v16h-26.667zM6.667 16h18.667v2.667h-18.667v-2.667zM6.667 21.333h13.333v2.667h-13.333v-2.667zM4 6.667c0-0.264 0.078-0.521 0.225-0.741s0.355-0.39 0.598-0.491c0.244-0.101 0.512-0.127 0.77-0.076s0.496 0.178 0.683 0.365c0.186 0.186 0.313 0.424 0.365 0.683s0.025 0.527-0.076 0.77c-0.101 0.244-0.272 0.452-0.491 0.598s-0.477 0.225-0.741 0.225c-0.354 0-0.693-0.14-0.943-0.391s-0.391-0.589-0.391-0.943zM8 6.667c0-0.264 0.078-0.521 0.225-0.741s0.355-0.39 0.598-0.491c0.244-0.101 0.512-0.127 0.77-0.076s0.496 0.178 0.683 0.365c0.186 0.186 0.313 0.424 0.365 0.683s0.025 0.527-0.076 0.77c-0.101 0.244-0.272 0.452-0.491 0.598s-0.477 0.225-0.741 0.225c-0.354 0-0.693-0.14-0.943-0.391s-0.391-0.589-0.391-0.943zM12 6.667c0-0.264 0.078-0.521 0.225-0.741s0.355-0.39 0.598-0.491c0.244-0.101 0.512-0.127 0.77-0.076s0.496 0.178 0.683 0.365c0.186 0.186 0.313 0.424 0.365 0.683s0.025 0.527-0.076 0.77c-0.101 0.244-0.272 0.452-0.491 0.598s-0.477 0.225-0.741 0.225c-0.354 0-0.693-0.14-0.943-0.391s-0.391-0.589-0.391-0.943z"></path>
        </symbol>
        <symbol id="Statistic" viewBox="0 0 32 32">
            <path fill="#7f858d" style="fill: var(--color1, #7f858d)" d="M16 0c-3.165 0-6.258 0.938-8.889 2.696s-4.682 4.257-5.893 7.181c-1.211 2.924-1.528 6.141-0.91 9.244s2.141 5.955 4.379 8.192c2.238 2.238 5.089 3.761 8.192 4.379s6.321 0.3 9.244-0.911c2.924-1.211 5.422-3.262 7.181-5.893s2.696-5.725 2.696-8.889c0-4.243-1.686-8.313-4.686-11.314s-7.070-4.686-11.314-4.686v0zM29.265 14.667h-11.932v-11.932c3.058 0.311 5.916 1.669 8.090 3.842s3.531 5.031 3.842 8.090zM2.667 16c0.004-3.304 1.233-6.489 3.45-8.94s5.263-3.992 8.55-4.326v13.817l9.765 9.765c-1.952 1.599-4.318 2.611-6.823 2.918s-5.045-0.104-7.326-1.185c-2.28-1.081-4.207-2.787-5.555-4.921s-2.063-4.606-2.061-7.129zM26.317 24.432l-7.099-7.099h10.047c-0.26 2.605-1.286 5.075-2.948 7.099z"></path>
        </symbol>
        <symbol id="Telefonie" viewBox="0 0 32 32">
            <path fill="#7f858d" style="fill: var(--color1, #7f858d)" d="M18.934 21.681c-3.882-1.644-6.969-4.738-8.604-8.624l4.533-4.541-8.347-8.353-4.228 4.227c-0.733 0.738-1.313 1.613-1.706 2.576s-0.591 1.994-0.582 3.034c0 9.664 12.336 22 22 22 1.040 0.009 2.071-0.188 3.034-0.581s1.838-0.973 2.575-1.707l4.228-4.228-8.353-8.353-4.551 4.551zM25.723 27.827c-0.49 0.485-1.071 0.869-1.71 1.127s-1.323 0.388-2.013 0.38c-8.311 0-19.333-11.023-19.333-19.333-0.008-0.69 0.121-1.374 0.38-2.013s0.642-1.221 1.127-1.711l2.343-2.343 4.583 4.583-3.913 3.913 0.327 0.819c0.962 2.572 2.465 4.908 4.408 6.849s4.281 3.441 6.854 4.399l0.808 0.308 3.901-3.903 4.583 4.583-2.344 2.343zM18.667 2.667v-2.667c3.535 0.004 6.924 1.41 9.424 3.91s3.906 5.889 3.909 9.424h-2.667c-0.003-2.828-1.128-5.539-3.128-7.539s-4.711-3.125-7.539-3.128zM18.667 8v-2.667c2.121 0.002 4.155 0.846 5.654 2.345s2.343 3.533 2.346 5.655h-2.667c0-1.415-0.562-2.771-1.562-3.771s-2.357-1.562-3.771-1.562z"></path>
        </symbol>
        <symbol id="Verkauf" viewBox="0 0 32 32">
            <path fill="#7f858d" style="fill: var(--color1, #7f858d)" d="M32 13.333l-2.933-13.333h-26.133l-2.901 13.044-0.032 1.623c0.005 1.287 0.479 2.528 1.333 3.491v9.843c0 1.061 0.421 2.078 1.172 2.828s1.768 1.172 2.828 1.172h21.333c1.061 0 2.078-0.421 2.828-1.172s1.172-1.768 1.172-2.828v-9.843c0.855-0.963 1.329-2.204 1.333-3.491v-1.333zM2.667 13.479l2.4-10.812h4.267v5.333h2.667v-5.333h8v5.333h2.667v-5.333h4.267l2.4 10.812v1.188c0 0.707-0.281 1.386-0.781 1.886s-1.178 0.781-1.886 0.781h-1.333c-0.707 0-1.386-0.281-1.886-0.781s-0.781-1.178-0.781-1.886h-2.667c0 0.707-0.281 1.386-0.781 1.886s-1.178 0.781-1.886 0.781h-2.667c-0.707 0-1.386-0.281-1.886-0.781s-0.781-1.178-0.781-1.886h-2.667c0 0.707-0.281 1.386-0.781 1.886s-1.178 0.781-1.886 0.781h-1.333c-0.707 0-1.386-0.281-1.886-0.781s-0.781-1.178-0.781-1.886v-1.188zM26.667 29.333h-21.333c-0.354 0-0.693-0.141-0.943-0.391s-0.391-0.589-0.391-0.943v-8.189c0.434 0.12 0.883 0.184 1.333 0.189h1.333c0.76-0.002 1.51-0.168 2.2-0.486s1.304-0.781 1.8-1.356c0.496 0.576 1.109 1.039 1.8 1.356s1.441 0.484 2.2 0.486h2.667c0.757 0 1.506-0.161 2.195-0.473s1.305-0.768 1.805-1.337c0.5 0.569 1.115 1.024 1.805 1.337s1.438 0.473 2.195 0.473h1.333c0.451-0.006 0.899-0.069 1.333-0.189v8.189c0 0.354-0.14 0.693-0.391 0.943s-0.589 0.391-0.943 0.391z"></path>
        </symbol>
        <symbol id="Warenbestard" viewBox="0 0 32 32">
            <path fill="#7f858d" style="fill: var(--color1, #7f858d)" d="M16.163 0l-14 8v16l14 8 14-8v-16l-14-8zM26.18 8.8l-10.164 5.669-9.785-5.723 9.932-5.68 10.017 5.733zM4.83 11.016l9.837 5.749v11.309l-9.837-5.623v-11.436zM17.334 28.259v-11.476l10.163-5.668v11.333l-10.163 5.811z"></path>
        </symbol>
    </defs>
</svg>
